<svg width="94" height="94" viewBox="0 0 94 94" fill="none" xmlns="http://www.w3.org/2000/svg">
<path d="M64.625 19.9746H66.975V22.3246H64.625V19.9746Z" fill="#FF4F4F"/>
<path d="M64.625 24.6748H66.975V27.0248H64.625V24.6748Z" fill="#FF4F4F"/>
<path d="M59.925 22.3252H62.275V24.6752H59.925V22.3252Z" fill="#FF4F4F"/>
<path d="M35.25 30.5498H37.6V32.8998H35.25V30.5498Z" fill="#FF4F4F"/>
<path d="M35.25 25.8496H37.6V28.1996H35.25V25.8496Z" fill="#FF4F4F"/>
<path d="M39.95 28.2002H42.2999V30.5502H39.95V28.2002Z" fill="#FF4F4F"/>
<path d="M81.075 50.5251H74.4132C78.1575 47.8897 80.229 43.4709 79.8592 38.9072C79.4894 34.3436 76.7339 30.3156 72.614 28.3176C73.2745 24.9079 72.5359 21.3757 70.5646 18.5163C68.5933 15.6564 65.555 13.7098 62.134 13.1135C60.6904 10.1691 58.1825 7.88316 55.1176 6.7181C52.0521 5.55359 48.6587 5.5966 45.6248 6.8398C42.5902 8.08246 40.1416 10.4319 38.774 13.4119C35.5611 14.3267 32.8261 16.4485 31.1412 19.3331C29.4564 22.2181 28.9528 25.6424 29.7349 28.8905C28.4917 29.6463 27.3827 30.6047 26.4548 31.7251H24.675C24.0261 31.7251 23.5 32.2512 23.5 32.9001V33.3134C21.4956 30.8234 18.4716 29.3751 15.275 29.3751C14.6261 29.3751 14.1 29.9012 14.1 30.5501C14.1021 32.6126 14.7069 34.6296 15.8394 36.3533C16.9719 38.077 18.5834 39.4324 20.4753 40.2533C16.2668 42.2503 13.1997 46.059 12.1454 50.597C11.0916 55.1343 12.1664 59.9051 15.0645 63.5528C17.9622 67.2001 22.3663 69.3255 27.0248 69.325C28.9704 69.3292 30.8982 68.9588 32.7031 68.2334C33.3667 68.9305 34.2873 69.325 35.2498 69.325H66.9748C68.8249 69.325 70.567 68.4527 71.6749 66.9708V66.975H81.0749C81.3864 66.975 81.6854 66.8512 81.9058 66.6309C82.1261 66.4106 82.2499 66.1116 82.2499 65.8V61.1C82.2499 60.7884 82.1261 60.4894 81.9058 60.2691C81.6854 60.0488 81.3864 59.925 81.0749 59.925H79.8999V57.575H81.0749C81.3864 57.575 81.6854 57.4512 81.9058 57.2309C82.1261 57.0106 82.2499 56.7116 82.2499 56.4V51.7C82.2499 51.3884 82.1261 51.0894 81.9058 50.8691C81.6854 50.6488 81.3864 50.525 81.0749 50.525L81.075 50.5251ZM31.6484 30.5125C32.1641 30.2507 32.4127 29.6527 32.2344 29.1025C31.3279 26.2882 31.6395 23.2233 33.0941 20.6493C34.5481 18.0753 37.0126 16.2262 39.8907 15.5501C40.2637 15.4635 40.571 15.2002 40.7143 14.8451C41.7628 12.246 43.8007 10.1687 46.3795 9.07079C48.9587 7.97237 51.8679 7.943 54.4686 8.98843C57.0693 10.0333 59.1491 12.0687 60.2508 14.6458C60.4161 15.0324 60.7748 15.3009 61.1919 15.3508C64.2521 15.7221 66.9981 17.4096 68.7124 19.9715C70.4267 22.5334 70.9381 25.7159 70.1135 28.686C69.9509 29.2677 70.2557 29.8778 70.8185 30.0971C73.3301 31.078 75.3722 32.9806 76.5284 35.416C77.684 37.8521 77.866 40.6374 77.0372 43.203C76.2084 45.7685 74.4312 47.9208 72.0686 49.2202C71.3259 47.9329 70.1231 46.9745 68.7031 46.5381C67.2827 46.1011 65.7494 46.2181 64.4118 46.8659L59.7118 49.1452L66.7508 39.4661C67.1279 38.9468 67.0188 38.2208 66.5053 37.8358L61.8053 34.3108C61.2865 33.921 60.55 34.0264 60.1603 34.5458L57.5747 37.9921V35.2502C57.5747 34.9386 57.4509 34.6396 57.2306 34.4193C57.0103 34.199 56.7113 34.0752 56.3997 34.0752H46.9997C46.3509 34.0752 45.8247 34.6013 45.8247 35.2502V37.9921L43.2397 34.5452C42.8505 34.0259 42.114 33.921 41.5947 34.3102L36.8947 37.8352C36.3817 38.2202 36.2721 38.9462 36.6492 39.4656L44.6923 50.5252H41.8849C41.2334 47.7702 39.8282 45.2509 37.8264 43.2491C35.8242 41.2474 33.3047 39.8421 30.5497 39.1906V32.9001C30.5497 32.3844 30.2135 31.9286 29.7204 31.777C30.3152 31.2866 30.962 30.8627 31.6486 30.5123L31.6484 30.5125ZM42.2528 52.8751H45.8246V55.8776L41.8337 57.8121C42.1448 56.5825 42.3011 55.3184 42.2995 54.0499C42.2995 53.656 42.2828 53.2636 42.2529 52.8749L42.2528 52.8751ZM47.9495 51.0097L39.2309 39.0205L42.0646 36.8951L46.0596 42.2225C46.3628 42.6269 46.8915 42.7921 47.371 42.6321C47.8509 42.4721 48.1746 42.0231 48.1746 41.5174V36.4251H55.2246V41.5174C55.2246 42.0231 55.5482 42.4721 56.0282 42.6321C56.5076 42.7921 57.0364 42.6269 57.3396 42.2225L61.3346 36.8951L64.1683 39.0205L55.4491 51.0097C55.3893 51.0936 55.341 51.1849 55.3054 51.2814L48.1745 54.7382V51.7C48.1745 51.4519 48.0959 51.2101 47.95 51.0097L47.9495 51.0097ZM28.2001 34.0749V38.8231C27.8104 38.7938 27.4185 38.7749 27.0251 38.7749C26.6317 38.7749 26.2398 38.7917 25.8501 38.821V34.0748L28.2001 34.0749ZM16.5487 31.8235C18.2682 32.0957 19.8571 32.9057 21.0882 34.1368C22.3193 35.368 23.1292 36.9568 23.4015 38.6764C21.682 38.4041 20.0931 37.5942 18.862 36.363C17.6309 35.1319 16.821 33.543 16.5487 31.8235ZM31.7256 64.9222V65.8004C31.7256 65.8974 31.7309 65.9934 31.7382 66.0889C27.9981 67.5514 23.7901 67.1904 20.3534 65.1127C16.9166 63.0349 14.6415 59.4763 14.1988 55.4845C13.756 51.4931 15.1954 47.5223 18.0931 44.7416C20.9907 41.961 25.0171 40.6864 28.9875 41.2937C32.9573 41.9006 36.4194 44.3199 38.354 47.8396C40.2879 51.3589 40.4753 55.5784 38.8596 59.2555L33.7127 61.7508C33.1189 62.0414 32.618 62.4925 32.2665 63.0533C31.9155 63.6135 31.7283 64.2613 31.7257 64.9223L31.7256 64.9222ZM47.0007 66.9753H44.6507V63.4503C44.6507 62.8015 45.1768 62.2753 45.8256 62.2753C46.4745 62.2753 47.0007 62.8015 47.0007 63.4503V66.9753ZM56.4007 66.9753H54.0507V63.4503C54.0507 62.8015 54.5768 62.2753 55.2257 62.2753C55.8745 62.2753 56.4007 62.8015 56.4007 63.4503V66.9753ZM65.8007 66.9753H63.4507V63.4503C63.4507 62.8015 63.9768 62.2753 64.6257 62.2753C65.2745 62.2753 65.8007 62.8015 65.8007 63.4503V66.9753ZM70.5007 63.4503C70.4996 64.179 70.2735 64.8898 69.8528 65.4845C69.4316 66.0793 68.8373 66.5294 68.1506 66.7733V63.4503C68.1506 62.1908 67.4787 61.0274 66.3881 60.3974C65.2976 59.768 63.9537 59.768 62.8631 60.3974C61.7726 61.0274 61.1006 62.1908 61.1006 63.4503V66.9753H58.7506V63.4503C58.7506 62.1908 58.0787 61.0274 56.9881 60.3974C55.8976 59.768 54.5537 59.768 53.4631 60.3974C52.3726 61.0274 51.7006 62.1908 51.7006 63.4503V66.9753H49.3506V63.4503C49.3506 62.1908 48.6787 61.0274 47.5881 60.3974C46.4976 59.768 45.1537 59.768 44.0631 60.3974C42.9726 61.0274 42.3006 62.1908 42.3006 63.4503V66.9753H35.2506C34.6017 66.9748 34.0761 66.4492 34.0756 65.8003V64.9222C34.0772 64.4726 34.3337 64.0625 34.7381 63.8647L65.4372 48.9805C66.5298 48.4507 67.8177 48.5204 68.8468 49.1651C69.8755 49.8098 70.5002 50.9381 70.5002 52.1524L70.5007 63.4503ZM79.9007 64.6253H72.7332C72.8118 64.2388 72.8517 63.8448 72.8512 63.4503V62.2753H79.9012L79.9007 64.6253ZM77.5507 59.9253H72.8507V57.5753H77.5507V59.9253ZM79.9007 55.2253H72.8507V52.8753H79.9007V55.2253Z" fill="#FF4F4F"/>
<path d="M16.45 55.2246H18.8V57.5746H16.45V55.2246Z" fill="#FF4F4F"/>
<path d="M16.45 50.5254H18.8V52.8754H16.45V50.5254Z" fill="#FF4F4F"/>
<path d="M21.15 52.875H23.5V55.225H21.15V52.875Z" fill="#FF4F4F"/>
</svg>
