<svg width="84" height="84" viewBox="0 0 84 84" fill="none" xmlns="http://www.w3.org/2000/svg">
<path d="M56.784 27.9009C56.784 23.9797 55.2264 20.2194 52.4541 17.4468C49.6815 14.6746 45.9212 13.117 42.0001 13.117C38.079 13.117 34.3186 14.6746 31.546 17.4468C28.7738 20.2194 27.2162 23.9797 27.2162 27.9009C27.2162 31.822 28.7738 35.5823 31.546 38.3549C34.3186 41.1271 38.079 42.6847 42.0001 42.6847C45.9198 42.6805 49.6777 41.1215 52.4494 38.3502C55.2207 35.5785 56.7798 31.8205 56.784 27.9009ZM42 39.9969C38.7919 39.9969 35.7154 38.7223 33.4467 36.4541C31.1785 34.1854 29.904 31.1089 29.904 27.9009C29.904 24.6928 31.1785 21.6163 33.4467 19.3476C35.7154 17.0794 38.7919 15.8049 42 15.8049C45.208 15.8049 48.2845 17.0794 50.5532 19.3476C52.8214 21.6163 54.096 24.6928 54.096 27.9009C54.0922 31.1081 52.8168 34.1826 50.5489 36.4499C48.2815 38.7177 45.207 39.9931 41.9998 39.997L42 39.9969ZM55.7892 42.8193C57.4293 42.9018 59.0254 42.275 60.1711 41.0989C60.9286 39.6093 61.0069 37.8655 60.3858 36.3144C60.1425 35.4955 60.0516 34.6391 60.1172 33.7873C60.5456 33.0973 61.1025 32.4949 61.7569 32.0136C63.2067 31.0972 64.1878 29.5967 64.4446 27.9009C64.1878 26.2049 63.2067 24.7044 61.7569 23.7881C61.1025 23.3067 60.5456 22.7044 60.1172 22.0144C60.0516 21.1627 60.1425 20.3063 60.3858 19.4873C61.0069 17.9362 60.9286 16.1925 60.1711 14.7028C58.979 13.5126 57.3366 12.8868 55.6551 12.9825C54.8151 12.9909 53.9822 12.8264 53.2087 12.4987C52.6565 11.8622 52.236 11.122 51.9726 10.3213C51.3276 8.81616 50.6014 7.09584 48.9351 6.55824C47.3043 6.28777 45.637 6.73918 44.3653 7.79484C43.6556 8.30015 42.8512 8.65687 42 8.84297C41.1487 8.65687 40.3443 8.30016 39.6346 7.79484C38.3629 6.73921 36.6956 6.28776 35.0648 6.55824C33.3984 7.0959 32.6722 8.81616 32.0274 10.3213C31.7639 11.1219 31.3435 11.8621 30.7912 12.4987C30.0178 12.8264 29.1848 12.9909 28.3448 12.9825C26.6634 12.8868 25.0209 13.5126 23.8288 14.7028C23.0713 16.1925 22.9931 17.9362 23.6141 19.4873C23.8574 20.3062 23.9484 21.1626 23.8827 22.0144C23.4543 22.7044 22.8974 23.3068 22.2431 23.7881C20.7932 24.7045 19.8121 26.205 19.5553 27.9009C19.8122 29.5968 20.7932 31.0973 22.2431 32.0136C22.8974 32.495 23.4543 33.0974 23.8827 33.7873C23.9484 34.6391 23.8574 35.4954 23.6141 36.3144C22.993 37.8655 23.0713 39.6093 23.8288 41.0989C24.9745 42.275 26.5706 42.9017 28.2108 42.8193L21.0872 52.1197C20.7689 52.5576 20.7403 53.1421 21.0145 53.6089C21.2888 54.0753 21.8133 54.335 22.351 54.2703L28.5334 53.4369L29.3668 59.646H29.3663C29.4465 60.1799 29.8384 60.6139 30.361 60.748C30.4749 60.7794 30.5926 60.7972 30.7107 60.8019C31.1331 60.7991 31.5301 60.6003 31.7856 60.2642L41.9195 46.985C41.9673 46.9494 42.0329 46.9494 42.0807 46.985L52.2146 60.2642C52.4701 60.6003 52.8671 60.7991 53.2894 60.8019C53.4076 60.7972 53.5252 60.7794 53.6391 60.748C54.1618 60.6139 54.5537 60.1799 54.6338 59.646L55.4673 53.4369L61.6497 54.2703H61.6492C62.1869 54.335 62.7114 54.0753 62.9856 53.6089C63.2599 53.1421 63.2313 52.5575 62.913 52.1197L55.7892 42.8193ZM31.5972 56.0709L31.0328 51.7434L31.0333 51.743C30.917 51.008 30.2397 50.497 29.5009 50.587L25.2001 51.1786L31.0331 43.5445C31.4452 44.145 31.7794 44.7957 32.0274 45.48C32.6724 46.9852 33.3985 48.7055 35.0648 49.2431C35.6128 49.4165 36.1964 49.4442 36.7584 49.3237L31.5972 56.0709ZM41.9997 44.2705H42.0002C41.6735 44.2752 41.3482 44.3207 41.0327 44.4046C41.006 44.4046 41.006 44.4046 40.9788 44.4313V44.4318C40.8663 44.4327 40.7557 44.4604 40.6563 44.5124C40.6296 44.5124 40.6024 44.5391 40.5489 44.5391H40.5485C39.7511 44.8485 38.9857 45.2357 38.2638 45.6951C37.4575 46.1788 36.3283 46.851 35.8985 46.6898C35.3875 46.5285 34.8771 45.3186 34.5007 44.4051V44.4046C34.0957 43.1507 33.3621 42.0275 32.3773 41.1524C32.0539 40.91 31.6896 40.7277 31.302 40.6147C31.1595 40.5421 31.0043 40.4961 30.845 40.4802C30.1043 40.2964 29.3487 40.1792 28.587 40.131C27.6195 40.0503 26.3024 39.9158 26.0066 39.5127C25.7108 39.1096 26.0066 37.8462 26.2217 36.9054V36.905C26.6385 35.6295 26.713 34.2669 26.4369 32.9539C25.8927 31.7646 25.0498 30.7366 23.9909 29.9703C23.2114 29.2981 22.2438 28.4379 22.2438 27.9008C22.2438 27.3631 23.2113 26.503 23.9909 25.804V25.8035C25.0545 25.0531 25.8987 24.0326 26.4369 22.8466C26.713 21.5337 26.6385 20.171 26.2217 18.8955C26.0066 17.9547 25.7108 16.6915 26.0066 16.2883C26.3023 15.8851 27.6195 15.7506 28.587 15.67C29.9193 15.6733 31.2275 15.3208 32.3774 14.6481C33.3622 13.773 34.0958 12.6499 34.5008 11.3959C34.8772 10.4818 35.3876 9.27248 35.8985 9.1112C35.9388 9.08683 35.9862 9.07698 36.0331 9.08402C36.8318 9.28792 37.5874 9.63386 38.2639 10.1054C39.3631 10.9 40.6513 11.3912 42.0003 11.5304C43.3493 11.3912 44.6375 10.9 45.7367 10.1054C46.543 9.62168 47.6722 8.97668 48.1021 9.11073C48.613 9.27198 49.1235 10.4818 49.4998 11.3954V11.3959C49.9048 12.6498 50.6384 13.773 51.6232 14.6481C52.7731 15.3208 54.0813 15.6733 55.4135 15.67C56.3811 15.7506 57.6982 15.8851 57.994 16.2883C58.2898 16.6914 57.994 17.9547 57.7789 18.8955C57.3621 20.171 57.2876 21.5336 57.5637 22.8466C58.1018 24.0326 58.9461 25.0531 60.0097 25.8035C60.7892 26.5024 61.7567 27.3626 61.7567 27.9003C61.7567 28.438 60.7892 29.2981 60.0097 29.9698V29.9703C58.9508 30.7367 58.1079 31.7647 57.5637 32.9538C57.2876 34.2668 57.3621 35.6295 57.7789 36.905C57.994 37.8457 58.2898 39.109 57.994 39.5122C57.6982 39.9154 56.3811 40.0499 55.4135 40.1305V40.131C54.5862 40.1797 53.7663 40.3147 52.9671 40.5341C52.9404 40.5341 52.9132 40.5608 52.8865 40.5608C52.4313 40.6747 52.0024 40.8753 51.6232 41.1524C50.6384 42.0275 49.9048 43.1506 49.4998 44.4046C49.1234 45.3187 48.613 46.528 48.1021 46.6893C47.6718 46.8238 46.543 46.1784 45.7368 45.6946V45.6951C45.0149 45.2357 44.2494 44.8485 43.4521 44.5391C43.3982 44.5391 43.3715 44.5124 43.3447 44.5124H43.3443C43.2449 44.4604 43.1343 44.4327 43.0218 44.4318C42.995 44.4051 42.995 44.4051 42.9679 44.4051V44.4046C42.6524 44.3207 42.3271 44.2752 42.0004 44.2705L41.9997 44.2705ZM54.4989 50.5875L54.4994 50.587C53.7606 50.497 53.0833 51.0079 52.967 51.7429L52.4026 56.0704L47.2417 49.3236C47.4887 49.3785 47.7414 49.4056 47.9945 49.4042C48.3146 49.401 48.632 49.3466 48.9352 49.243C50.6017 48.7053 51.3278 46.9851 51.9727 45.4799C52.2207 44.7955 52.5549 44.1449 52.9669 43.5444L58.8 51.1785L54.4989 50.5875ZM49.2222 25.0515L45.0644 24.4599L43.2044 20.6968C42.9546 20.2651 42.4933 19.9993 41.995 19.9993C41.4963 19.9993 41.035 20.2651 40.7852 20.6968L38.936 24.4599L34.7778 25.0646C34.271 25.1382 33.8506 25.493 33.6926 25.9796C33.5346 26.4662 33.6663 27.0005 34.0329 27.3577L37.0408 30.2902L36.3311 34.4326C36.2463 34.9361 36.4539 35.4437 36.8674 35.7438C37.2804 36.0433 37.8279 36.0831 38.2801 35.8464L42.0002 33.8922L45.7202 35.8464C46.173 36.0841 46.7205 36.0442 47.1344 35.7442C47.5483 35.4447 47.7564 34.9366 47.672 34.4326L46.9623 30.2902L49.9702 27.3577H49.9698C50.3368 27.0005 50.4685 26.4661 50.3106 25.9796C50.1526 25.493 49.7316 25.1382 49.2254 25.0646L49.2222 25.0515ZM44.5746 28.8441H44.5755C44.2591 29.1534 44.1152 29.5988 44.1911 30.0347L44.5596 32.1853L42.6241 31.1691H42.6236C42.2331 30.9647 41.7672 30.9647 41.3767 31.1691L39.4412 32.1853L39.8096 30.0347H39.8092C39.8851 29.5988 39.7412 29.1534 39.4248 28.8441L37.8577 27.3202L40.0084 27.0057C40.4457 26.941 40.824 26.6658 41.019 26.2688L41.9865 24.3094L42.954 26.2688H42.9545C43.1495 26.6658 43.5273 26.941 43.9651 27.0057L46.1157 27.3202L44.5746 28.8441Z" fill="#FF4F4F"/>
</svg>
