<svg width="60" height="60" viewBox="0 0 60 60" fill="none" xmlns="http://www.w3.org/2000/svg">
<g clip-path="url(#clip0_121_744)">
<path d="M60 20.106C60 20.0657 59.9945 20.0261 59.9916 19.9866C59.9893 19.9495 59.9893 19.911 59.9838 19.8737C59.9783 19.8359 59.9693 19.7987 59.9615 19.7616C59.9537 19.7226 59.9482 19.6837 59.9381 19.6452C59.9285 19.6105 59.9146 19.5769 59.9027 19.5427C59.89 19.5042 59.8787 19.4642 59.8637 19.4263C59.8492 19.3921 59.8301 19.3603 59.8139 19.3261C59.7971 19.2907 59.7814 19.254 59.7617 19.2198C59.742 19.1857 59.7185 19.1544 59.6963 19.122C59.676 19.0913 59.6574 19.0583 59.634 19.0282C59.61 18.9964 59.5812 18.9671 59.5547 18.9364C59.5301 18.9095 59.5084 18.88 59.482 18.8536C59.4545 18.8267 59.4232 18.8021 59.3943 18.7763C59.3648 18.7511 59.3379 18.7241 59.3066 18.7001C59.2449 18.6521 59.1795 18.6089 59.1111 18.5687L30.8246 2.23819C30.2733 1.91963 29.5934 1.9208 29.0426 2.24053L0.950584 18.566C0.950584 18.566 0.949998 18.566 0.949998 18.5666C0.949998 18.5666 0.949412 18.5666 0.949412 18.5672L0.943943 18.5701C0.913865 18.5881 0.886913 18.6092 0.857613 18.6283C0.822261 18.6523 0.784958 18.6738 0.751363 18.7004C0.719527 18.7244 0.691403 18.752 0.661908 18.7783C0.633783 18.8035 0.603703 18.827 0.576753 18.8533C0.548042 18.8828 0.522848 18.915 0.495698 18.9457C0.47226 18.9727 0.447065 18.999 0.424993 19.0268C0.399797 19.0598 0.378704 19.0951 0.356048 19.1299C0.336907 19.1594 0.315227 19.1875 0.297258 19.2182C0.277531 19.2529 0.261906 19.2897 0.243938 19.3262C0.227532 19.3586 0.208977 19.3904 0.19511 19.4246C0.180266 19.4606 0.169328 19.499 0.156828 19.5361C0.144133 19.5715 0.130461 19.6057 0.120305 19.6424C0.110149 19.6809 0.104094 19.7209 0.0962814 19.7606C0.0890549 19.7971 0.0794844 19.8332 0.0740159 19.8703C0.0685474 19.91 0.0685474 19.9508 0.0656174 19.9908C0.0632737 20.0279 0.0578049 20.0641 0.0578049 20.1018L0.000189911 40.8033C-0.00156789 41.4398 0.3373 42.0291 0.88884 42.347L29.1758 58.6785C29.4506 58.8381 29.7579 58.9168 30.0639 58.9168C30.1413 58.9168 30.2182 58.9119 30.295 58.9023C30.3089 58.9 30.3225 58.8957 30.3364 58.8933C30.3987 58.8838 30.4606 58.873 30.5223 58.8562C30.5362 58.8533 30.5499 58.8461 30.5637 58.843C30.6243 58.825 30.6843 58.8058 30.7438 58.7818C30.7606 58.774 30.7768 58.765 30.7936 58.7572C30.8464 58.7332 30.8999 58.7092 30.9514 58.6799C30.9526 58.6787 30.9538 58.6781 30.955 58.6775C30.9561 58.6763 30.9573 58.6763 30.9579 58.6758L59.0579 42.3453C59.6032 42.0285 59.9405 41.4453 59.9423 40.8134L60.0005 20.1139V20.1104V20.1061L60 20.106ZM29.9385 5.83198L40.5865 11.9795L15.9505 26.203L5.3825 20.1015L29.9385 5.83198ZM28.2955 54.0654L3.55805 39.783L3.60551 23.181L28.342 37.463L28.2955 54.0654ZM30.1201 34.3835L19.5056 28.256L44.1421 14.0325L54.6756 20.114L30.1201 34.3835ZM56.3891 39.784L31.8506 54.0444L31.8975 37.4625L56.4365 23.2025L56.3891 39.784Z" fill="#FF4F4F"/>
<path d="M26.29 50.0505L15.668 43.918L15.6879 36.7891L26.3104 42.9216L26.29 50.0505Z" fill="#FF4F4F"/>
</g>
<defs>
<clipPath id="clip0_121_744">
<rect width="60" height="60" fill="white"/>
</clipPath>
</defs>
</svg>
