<svg width="72" height="72" viewBox="0 0 72 72" fill="none" xmlns="http://www.w3.org/2000/svg">
<path d="M61.0559 32.451C61.1781 33.8738 60.6658 35.2775 59.6561 36.2873L46.4081 49.5353C44.4973 51.4301 41.9109 52.4872 39.2198 52.4728H22.8614L18.7197 56.6027C18.1568 57.1656 17.2435 57.1656 16.6807 56.6027C16.1178 56.0394 16.1178 55.1265 16.6807 54.5637L21.2309 50.0135V50.0131C21.5017 49.7435 21.8685 49.592 22.2506 49.5928H39.22C41.165 49.6008 43.0321 48.829 44.4038 47.4501L57.6518 34.2021C58.1215 33.7011 58.2958 32.9912 58.111 32.3298C57.9262 31.6684 57.4091 31.1518 56.7477 30.9669C56.0864 30.7821 55.3765 30.9561 54.8754 31.4258L44.421 41.9892L44.3865 42.0181C43.4865 42.9101 42.2723 43.4128 41.0055 43.4179H30.8966C30.1014 43.4179 29.4566 42.773 29.4566 41.9779C29.4566 41.1824 30.1014 40.5379 30.8966 40.5379H41.0111C41.4539 40.5355 41.883 40.3836 42.2281 40.1064C42.5733 39.8292 42.8143 39.443 42.912 39.0115C43.0393 38.4353 42.8987 37.8322 42.5291 37.3718C42.1598 36.9118 41.6013 36.6442 41.0111 36.6442H23.5645C21.9501 36.6394 20.4008 37.2802 19.2618 38.4237L16.7156 40.9638V40.9642C16.4541 41.2683 16.0776 41.4499 15.6766 41.4648C15.276 41.4797 14.8867 41.3266 14.6034 41.0425C14.3201 40.7585 14.1682 40.3691 14.1843 39.9682C14.2004 39.5672 14.3828 39.1911 14.6881 38.9308L17.2343 36.3907H17.2339C18.9105 34.7044 21.1918 33.7586 23.5701 33.7643H41.0115C41.9666 33.761 42.9007 34.0435 43.6938 34.5755C44.4874 35.107 45.1037 35.8635 45.4641 36.7479L52.8024 29.4097C53.6795 28.5326 54.8595 28.0255 56.0994 27.9926C57.3394 27.9597 58.5447 28.404 59.4668 29.2333C60.3893 30.0626 60.9582 31.2145 61.0566 32.4507L61.0559 32.451ZM49.5359 13.443C49.1812 12.5386 48.468 11.8214 47.566 11.4618L43.8623 9.99887L43.148 6.08227V6.08187C42.974 5.12441 42.4095 4.2831 41.5902 3.75833C40.7705 3.23399 39.7701 3.07409 38.828 3.31716L34.9632 4.29028L32.0832 1.54287C31.3801 0.872289 30.4303 0.523532 29.4604 0.580185C28.4904 0.637239 27.588 1.09407 26.9681 1.84255L24.4336 4.91263L20.4881 4.38268C19.5242 4.2529 18.5499 4.52973 17.7982 5.14688C17.0465 5.76402 16.5856 6.66608 16.5254 7.63715L16.2779 11.6117L12.7643 13.5008C11.9177 13.9633 11.2994 14.7545 11.0551 15.6874C10.8108 16.6207 10.9623 17.6136 11.4737 18.4312L13.6108 21.7949L11.8827 25.3833V25.3837C11.4612 26.2604 11.4239 27.2729 11.7786 28.1789C12.1338 29.0846 12.8498 29.8017 13.7546 30.1585L18.2011 31.9151L18.2015 31.9155C18.9412 32.208 19.7777 31.8456 20.0707 31.1063C20.3632 30.3666 20.0008 29.5297 19.2615 29.2372L14.815 27.4806L14.8146 27.4802C14.6538 27.4171 14.5269 27.2902 14.4634 27.1295C14.3999 26.9691 14.4063 26.7891 14.4807 26.6337L16.5486 22.3253L16.5482 22.3249C16.7636 21.8777 16.733 21.3509 16.4678 20.9311L13.9044 16.8992C13.812 16.7533 13.7839 16.5753 13.8277 16.4082C13.8715 16.241 13.9828 16.0996 14.1351 16.0176L18.3458 13.7484H18.3454C18.7761 13.5174 19.0602 13.0835 19.1 12.5965L19.3993 7.82733H19.3997C19.409 7.65416 19.4905 7.49345 19.6243 7.38376C19.7565 7.27126 19.9305 7.22064 20.1024 7.24554L24.8431 7.88478H24.8427C25.3353 7.95389 25.8283 7.76184 26.1445 7.37773L29.1916 3.69133C29.3017 3.55833 29.4628 3.47718 29.6352 3.46713C29.808 3.45749 29.9771 3.51976 30.1017 3.6395L33.5579 6.94018C33.9175 7.28411 34.4298 7.4171 34.9111 7.29135L39.5192 6.09882V6.09922C39.6863 6.05623 39.8635 6.08476 40.0085 6.17757C40.154 6.27038 40.254 6.41945 40.2854 6.5886L41.1838 11.2831C41.2726 11.7733 41.608 12.1827 42.0709 12.3659L46.5174 14.1225L46.5178 14.1229C46.6745 14.1916 46.7967 14.3218 46.8541 14.4833C46.912 14.6444 46.9007 14.8228 46.8228 14.9755L44.7551 19.2838C44.5398 19.7314 44.5703 20.2582 44.8355 20.6777L47.3989 24.7096C47.4913 24.8554 47.5194 25.0334 47.4756 25.2005C47.4318 25.3677 47.3205 25.5091 47.1687 25.5911L42.9579 27.8603C42.6096 28.0347 42.3464 28.3425 42.2291 28.7137C42.1114 29.0854 42.1495 29.4883 42.3339 29.831C42.5188 30.1742 42.8346 30.4277 43.2094 30.5338C43.5839 30.6398 43.9857 30.59 44.3232 30.3947L48.5339 28.1255H48.5335C49.3869 27.663 50.01 26.8679 50.2543 25.929C50.499 24.99 50.3431 23.9916 49.8236 23.1719L47.6865 19.8082L49.4146 16.2198L49.4151 16.2194C49.8361 15.3435 49.8759 14.3322 49.5243 13.4258L49.5359 13.443ZM30.6431 27.843C30.1268 27.8438 29.6222 27.6916 29.1923 27.4059C28.7628 27.1198 28.4277 26.7128 28.2297 26.2359C27.9211 25.5026 27.0765 25.1587 26.3433 25.4673C25.61 25.7758 25.2656 26.6204 25.5742 27.3537C25.9917 28.3529 26.696 29.2063 27.5981 29.8062C28.5001 30.4061 29.5595 30.7251 30.6431 30.7231C33.7767 30.7231 36.1384 28.5056 36.1384 25.5393C36.1384 24.0763 35.4702 21.4668 31.0176 20.4302H30.9714C28.0339 19.762 28.0339 18.5237 28.0339 18.1264C28.0339 16.5654 29.3875 15.8226 30.6492 15.8226L30.6488 15.8222C31.1643 15.821 31.6685 15.972 32.098 16.2573C32.5276 16.5422 32.863 16.948 33.0623 17.4233C33.2017 17.7873 33.4826 18.0786 33.8406 18.2321C34.1986 18.3852 34.6036 18.3868 34.9628 18.2361C35.322 18.0858 35.6052 17.7962 35.7474 17.4337C35.8897 17.0709 35.8788 16.6663 35.7177 16.312C35.0628 14.7514 33.7232 13.5818 32.0888 13.1439V12.1302C32.0888 11.3346 31.4439 10.6902 30.6488 10.6902C29.8533 10.6902 29.2088 11.3346 29.2088 12.1302V13.1611C28.0666 13.4018 27.0424 14.0286 26.3079 14.9362C25.5735 15.8434 25.1741 16.9761 25.1769 18.1433C25.1769 19.6062 25.8451 22.2158 30.2977 23.2524H30.3439C33.2814 23.9262 33.2814 25.1589 33.2814 25.5562C33.2464 27.1404 31.8928 27.8492 30.6316 27.8492L30.6431 27.843Z" fill="#FF4F4F"/>
</svg>
