<svg width="90" height="90" viewBox="0 0 90 90" fill="none" xmlns="http://www.w3.org/2000/svg">
<path d="M44.9987 5.39746C43.9581 5.39746 43.3353 5.77815 42.6468 6.15683C41.9582 6.53551 41.2781 7.00258 40.6147 7.45759C39.9512 7.91261 39.3063 8.35709 38.7796 8.69509C38.2527 9.03309 37.7621 9.24202 37.8233 9.22594C37.8846 9.20937 37.3588 9.26964 36.7335 9.24001C36.1082 9.20987 35.3313 9.14057 34.5291 9.07829C33.7271 9.01551 32.9099 8.97031 32.1245 8.98688C31.339 9.00346 30.6072 8.98337 29.7058 9.50368C28.8044 10.024 28.4532 10.6668 28.0464 11.3388C27.6396 12.0108 27.2755 12.7501 26.9285 13.4763C26.5814 14.2025 26.2449 14.9132 25.9581 15.4696C25.6714 16.0261 25.3545 16.446 25.3992 16.4013C25.4439 16.3566 25.0275 16.6735 24.471 16.9603C23.9145 17.2471 23.2039 17.58 22.4777 17.9271C21.7519 18.2741 21.0086 18.6382 20.3367 19.045C19.6647 19.4519 19.0254 19.8029 18.5051 20.7044C17.9847 21.6059 17.9908 22.3376 17.9742 23.1231C17.9576 23.9086 18.0174 24.7257 18.0797 25.5277C18.1424 26.3298 18.2082 27.1103 18.2379 27.7356C18.267 28.3608 18.2072 28.8867 18.2238 28.8254C18.2404 28.7641 18.031 29.2548 17.693 29.7817C17.3549 30.3085 16.8999 30.9499 16.4449 31.6133C15.9899 32.2767 15.5334 32.9603 15.1547 33.6488C14.776 34.3374 14.3988 34.9601 14.3988 36.0008C14.3988 37.0415 14.776 37.6748 15.1547 38.3633C15.5334 39.0519 15.9899 39.7354 16.4449 40.3988C16.8999 41.0623 17.3549 41.7036 17.693 42.2305C18.031 42.7574 18.2404 43.2374 18.2238 43.1762C18.2072 43.1149 18.267 43.6372 18.2379 44.2625C18.2087 44.8878 18.1419 45.6823 18.0797 46.4843C18.0169 47.2864 17.9576 48.1036 17.9742 48.889C17.9908 49.6745 17.9842 50.4063 18.5051 51.3077C19.0254 52.2092 19.6647 52.5603 20.3367 52.967C21.0087 53.3739 21.752 53.738 22.4777 54.085C23.2033 54.432 23.9146 54.765 24.471 55.0518C25.0275 55.3386 25.4438 55.6555 25.3992 55.6108C25.3545 55.5661 25.6714 55.986 25.9581 56.5424C26.2449 57.0989 26.5814 57.8096 26.9285 58.5358C27.2755 59.262 27.6396 60.0013 28.0464 60.6733C28.4532 61.3453 28.8043 61.9882 29.7058 62.5084C30.6073 63.0286 31.339 63.0086 32.1245 63.0252C32.9099 63.0418 33.7271 62.9961 34.5291 62.9338C35.3312 62.871 36.1081 62.7911 36.7335 62.7615C37.3588 62.7314 37.8846 62.8022 37.8233 62.7861C37.7621 62.7696 38.2527 62.9785 38.7796 63.317C39.3064 63.655 39.9513 64.0995 40.6147 64.5545C41.2781 65.0095 41.9581 65.4766 42.6468 65.8553C43.3353 66.2339 43.9581 66.6006 44.9987 66.6006C46.0394 66.6006 46.6762 66.2339 47.3647 65.8553C48.0533 65.4766 48.7333 65.0095 49.3968 64.5545C50.0602 64.0995 50.7051 63.655 51.2319 63.317C51.7586 62.979 52.2353 62.7701 52.174 62.7861C52.1128 62.8027 52.6386 62.7319 53.2639 62.7615C53.8892 62.7917 54.6661 62.8715 55.4683 62.9338C56.2703 62.9966 57.1015 63.0413 57.8869 63.0252C58.6724 63.0086 59.4042 63.0287 60.3056 62.5084C61.207 61.9881 61.5617 61.3452 61.9686 60.6733C62.3754 60.0013 62.736 59.262 63.083 58.5358C63.4301 57.8101 63.7525 57.0989 64.0393 56.5424C64.326 55.986 64.643 55.5661 64.5983 55.6108C64.5536 55.6555 64.984 55.3386 65.5404 55.0518C66.0969 54.765 66.8081 54.432 67.5338 54.085C68.2596 53.738 69.0029 53.3739 69.6748 52.967C70.3468 52.5602 70.9861 52.2092 71.5064 51.3077C72.0267 50.4062 72.0102 49.6745 72.0267 48.889C72.0433 48.1035 71.98 47.2864 71.9177 46.4843C71.855 45.6823 71.7892 44.8877 71.7595 44.2625C71.7294 43.6372 71.7902 43.1149 71.7736 43.1762C71.757 43.2374 71.966 42.7573 72.3045 42.2305C72.6425 41.7036 73.0975 41.0623 73.5525 40.3988C74.0075 39.7354 74.4641 39.0518 74.8427 38.3633C75.2214 37.6748 75.6021 37.0415 75.6021 36.0008C75.6021 34.9601 75.2214 34.3373 74.8427 33.6488C74.464 32.9603 74.0075 32.2767 73.5525 31.6133C73.0975 30.9498 72.6425 30.3086 72.3045 29.7817C71.9665 29.2548 71.757 28.7641 71.7736 28.8254C71.7902 28.8867 71.7304 28.3608 71.7595 27.7356C71.7897 27.1103 71.8555 26.3298 71.9177 25.5277C71.9805 24.7257 72.0433 23.9085 72.0267 23.1231C72.0102 22.3376 72.0267 21.6058 71.5064 20.7044C70.9861 19.8029 70.3468 19.4518 69.6748 19.045C69.0028 18.6382 68.26 18.2741 67.5338 17.9271C66.8081 17.58 66.0969 17.247 65.5404 16.9603C64.984 16.6735 64.5536 16.3566 64.5983 16.4013C64.643 16.446 64.326 16.0261 64.0393 15.4696C63.7525 14.9132 63.4301 14.2025 63.083 13.4763C62.736 12.7501 62.3754 12.0108 61.9686 11.3388C61.5617 10.6668 61.2072 10.0239 60.3056 9.50368C59.4041 8.98348 58.6724 9.00296 57.8869 8.98688C57.1014 8.97031 56.2703 9.01601 55.4683 9.07829C54.6662 9.14107 53.8893 9.21037 53.2639 9.24001C52.6386 9.27014 52.1128 9.20937 52.174 9.22594C52.2353 9.24252 51.7587 9.03359 51.2319 8.69509C50.705 8.35709 50.0601 7.91261 49.3968 7.45759C48.7333 7.00256 48.0533 6.53549 47.3647 6.15683C46.6761 5.77817 46.0392 5.39746 44.9987 5.39746ZM45.0022 9.05017C45.1213 9.09387 45.3553 9.1692 45.6245 9.31736C46.1061 9.58204 46.7294 9.98533 47.3647 10.4213C48 10.8572 48.6469 11.3172 49.2772 11.722C49.9075 12.1268 50.4419 12.4909 51.2459 12.7064C52.0499 12.9218 52.6883 12.8756 53.4361 12.84C54.1839 12.8048 54.981 12.7275 55.7494 12.6677C56.5178 12.608 57.2601 12.5613 57.8095 12.5728C58.1168 12.5793 58.3549 12.6341 58.4774 12.6607C58.5583 12.7516 58.7235 12.9319 58.8852 13.1986C59.17 13.6687 59.509 14.3351 59.8415 15.0302C60.174 15.7253 60.507 16.453 60.8505 17.1185C61.194 17.7839 61.4712 18.3615 62.0599 18.9501C62.6485 19.5387 63.2296 19.8159 63.895 20.1595C64.5604 20.503 65.2847 20.836 65.9797 21.1685C66.6748 21.5009 67.3448 21.8435 67.8148 22.1282C68.0725 22.2839 68.2513 22.4411 68.3457 22.522C68.3678 22.645 68.42 22.8901 68.4266 23.204C68.4381 23.7534 68.3914 24.4817 68.3316 25.2501C68.2719 26.0185 68.2091 26.8261 68.1734 27.5739C68.1383 28.3217 68.0916 28.9636 68.307 29.7676C68.5225 30.5716 68.869 31.1025 69.2738 31.7328C69.6786 32.363 70.1562 33.01 70.5922 33.6453C71.0281 34.2806 71.4279 34.9074 71.6926 35.389C71.8402 35.6572 71.9161 35.8847 71.9563 36.0007C71.9161 36.1192 71.8412 36.3528 71.6926 36.6229C71.4279 37.1046 71.0281 37.7279 70.5922 38.3632C70.1563 38.9985 69.6786 39.6454 69.2738 40.2757C68.869 40.906 68.5225 41.4403 68.307 42.2443C68.0916 43.0484 68.1383 43.6868 68.1734 44.4346C68.2086 45.1824 68.2719 45.9935 68.3316 46.762C68.3914 47.5304 68.4381 48.2587 68.4266 48.808C68.42 49.1229 68.3673 49.3645 68.3457 49.483C68.2508 49.5674 68.072 49.7281 67.8148 49.8838C67.3448 50.1686 66.6748 50.5076 65.9797 50.8401C65.2847 51.1726 64.5604 51.5055 63.895 51.8491C63.2295 52.1926 62.6484 52.4698 62.0599 53.0584C61.4713 53.647 61.194 54.2281 60.8505 54.8935C60.507 55.5589 60.174 56.2833 59.8415 56.9783C59.509 57.6734 59.17 58.3434 58.8852 58.8134C58.7296 59.0706 58.5688 59.2494 58.4845 59.3443C58.3654 59.3659 58.1244 59.4186 57.8095 59.4251C57.26 59.4367 56.5177 59.404 55.7494 59.3443C54.9809 59.2845 54.1839 59.2072 53.4361 59.172C52.6883 59.1369 52.05 59.0902 51.2459 59.3056C50.4418 59.5211 49.9075 59.8817 49.2772 60.2865C48.6469 60.6913 48 61.1548 47.3647 61.5908C46.7294 62.0268 46.1061 62.4301 45.6245 62.6947C45.3548 62.8429 45.1212 62.9147 45.0022 62.9549C44.8862 62.9147 44.6552 62.8419 44.387 62.6947C43.9053 62.4301 43.2821 62.0268 42.6468 61.5908C42.0115 61.1549 41.3505 60.6913 40.7203 60.2865C40.09 59.8817 39.5591 59.5211 38.755 59.3056C37.951 59.0902 37.3091 59.1364 36.5614 59.172C35.8135 59.2072 35.02 59.2845 34.2516 59.3443C33.4832 59.404 32.7409 59.4367 32.1915 59.4251C31.8766 59.4186 31.6355 59.3659 31.5165 59.3443C31.4321 59.2494 31.2714 59.0706 31.1157 58.8134C30.8309 58.3433 30.502 57.6739 30.1695 56.9783C29.8375 56.2832 29.504 55.5595 29.161 54.8935C28.8175 54.2281 28.5402 53.647 27.9511 53.0584C27.3625 52.4698 26.7819 52.1926 26.116 51.8491C25.4506 51.506 24.7268 51.1726 24.0317 50.8401C23.3361 50.5081 22.6697 50.1686 22.1996 49.8838C21.9309 49.7211 21.7486 49.5559 21.6582 49.476C21.6316 49.3535 21.5804 49.1149 21.5738 48.808C21.5623 48.2586 21.6055 47.5304 21.6652 46.762C21.725 45.9935 21.8059 45.1825 21.841 44.4346C21.8762 43.6867 21.9229 43.0484 21.7074 42.2443C21.492 41.4403 21.1278 40.9059 20.723 40.2757C20.3183 39.6454 19.8582 38.9985 19.4223 38.3632C18.9864 37.7278 18.5831 37.1046 18.3184 36.6229C18.1702 36.3532 18.0914 36.1197 18.0477 36.0007C18.0914 35.8847 18.1712 35.6572 18.3184 35.389C18.5831 34.9073 18.9864 34.2805 19.4223 33.6453C19.8582 33.01 20.3183 32.3631 20.723 31.7328C21.1278 31.1025 21.492 30.5716 21.7074 29.7676C21.9229 28.9635 21.8762 28.3217 21.841 27.5739C21.8059 26.8261 21.725 26.0184 21.6652 25.2501C21.6055 24.4817 21.5623 23.7534 21.5738 23.204C21.5804 22.8981 21.6316 22.6556 21.6582 22.529C21.7481 22.4532 21.9304 22.2914 22.1996 22.1282C22.6697 21.8435 23.3361 21.5009 24.0312 21.1685C24.7263 20.836 25.4505 20.503 26.116 20.1595C26.7815 19.8159 27.3626 19.5387 27.9511 18.9501C28.5397 18.3615 28.817 17.7839 29.1605 17.1185C29.504 16.453 29.837 15.7253 30.1695 15.0302C30.5019 14.3351 30.8304 13.6686 31.1152 13.1986C31.2769 12.9319 31.4421 12.7516 31.523 12.6607C31.6455 12.6341 31.8836 12.5793 32.191 12.5728C32.7404 12.5613 33.4827 12.608 34.2511 12.6677C35.0195 12.7275 35.8129 12.8048 36.5608 12.84C37.3087 12.8751 37.9506 12.9218 38.7545 12.7064C39.5585 12.4909 40.0895 12.1268 40.7197 11.722C41.35 11.3172 42.011 10.8572 42.6463 10.4213C43.2815 9.98535 43.9049 9.58204 44.3865 9.31736C44.6542 9.17021 44.8857 9.09386 45.0017 9.05017H45.0022ZM44.9987 16.9322C34.4885 16.9322 25.9329 25.4873 25.9329 35.9981C25.9329 46.5089 34.4879 55.0807 44.9987 55.0807C55.5089 55.0807 64.0671 46.508 64.0671 35.9981C64.0671 25.4882 55.5087 16.9322 44.9987 16.9322ZM44.9987 20.5322C53.5638 20.5322 60.4774 27.4324 60.4774 35.9981C60.4774 44.5638 53.5632 51.4807 44.9987 51.4807C36.4337 51.4807 29.5329 44.5629 29.5329 35.9981C29.5329 27.4333 36.433 20.5322 44.9987 20.5322ZM52.3077 29.1702H52.3072C51.8377 29.1883 51.3937 29.3887 51.0697 29.7292L42.4494 38.4831L38.9268 34.9218C38.5928 34.5722 38.1323 34.3719 37.6486 34.3653C37.165 34.3593 36.6989 34.5481 36.3558 34.8891C36.0128 35.2302 35.8215 35.6947 35.825 36.1783C35.8285 36.6625 36.0269 37.124 36.3744 37.46L41.1732 42.3116H41.1737C41.5137 42.6526 41.9763 42.8429 42.4579 42.8404C42.9396 42.8379 43.4001 42.642 43.7361 42.2975L53.6361 32.2534C54.1665 31.7325 54.3222 30.9395 54.0279 30.2565C53.7341 29.574 53.0505 29.1426 52.3072 29.1702H52.3077Z" fill="#FF4F4F"/>
</svg>
