<svg width="74" height="74" viewBox="0 0 74 74" fill="none" xmlns="http://www.w3.org/2000/svg">
<path d="M29.0268 25.9925L28.9583 26.233L28.7604 26.1766L29.0268 25.9925ZM29.0268 25.9925L28.8847 25.7868L28.7155 25.9038L29.0268 25.9925ZM59.5573 11.1773L59.5639 11.184C60.0364 11.669 60.2712 12.3366 60.2073 13.0103C60.1446 13.6714 59.7946 14.2719 59.2507 14.6529L59.2498 14.6535L47.6198 22.7194L42.2765 46.4143C42.2764 46.4145 42.2764 46.4147 42.2763 46.4149C42.1413 47.0264 41.8017 47.5741 41.3134 47.9661C40.8246 48.3586 40.2164 48.572 39.59 48.5716L39.586 48.5716V48.5715C38.8062 48.5584 38.0676 48.2191 37.5499 47.6356M59.5573 11.1773L37.7369 47.4697M59.5573 11.1773L59.5503 11.1712C59.1306 10.8002 58.5959 10.5853 58.0362 10.5628C57.4781 10.5403 56.9287 10.7105 56.4815 11.0447L24.6777 33.1951L24.6589 33.1946L24.5908 33.2429C24.1555 33.551 23.6424 33.7301 23.1103 33.7601L23.1101 33.7601C22.5782 33.7905 22.0484 33.6702 21.5812 33.4129L21.5786 33.4115L16.6092 30.7513C16.3185 30.5722 15.9839 30.4773 15.6422 30.4773C15.2981 30.4773 14.9608 30.5738 14.6685 30.7558L14.6685 30.7557L14.6635 30.759C14.3838 30.9426 14.1575 31.197 14.0077 31.4965C13.858 31.7954 13.7905 32.1287 13.811 32.4618C13.8431 33.1128 14.2172 33.6976 14.7935 34.0005L24.0416 39.0683L24.1778 39.143L24.3051 39.0539L38.8143 28.9024M59.5573 11.1773L38.8534 28.5699M37.5499 47.6356L37.7369 47.4697M37.5499 47.6356C37.5499 47.6356 37.55 47.6356 37.55 47.6357L37.7369 47.4697M37.5499 47.6356C37.0318 47.0521 36.7828 46.2781 36.8626 45.5024L36.863 45.4988L38.8143 28.9024M37.7369 47.4697C37.2653 46.9386 37.0386 46.2341 37.1113 45.528L39.0886 28.7105L38.8143 28.9024M38.8143 28.9024L38.8534 28.5699M38.8534 28.5699L24.1617 38.8491L38.8534 28.5699ZM18.0823 27.8572L18.0844 27.8583L22.8022 30.4298L22.9373 30.5035L23.0639 30.416L29.1689 26.1982L29.6045 25.8973L29.0954 25.7521L20.1415 23.1993L20.1408 23.1991C18.4915 22.7342 17.1777 21.4854 16.6305 19.8614C16.0837 18.2378 16.3732 16.4487 17.4044 15.081C18.5277 13.6133 20.3349 12.837 22.1726 13.0321C22.173 13.0321 22.1735 13.0322 22.1739 13.0322L44.2412 15.6219L44.3347 15.6329L44.4122 15.5795L54.6429 8.53091L54.6429 8.53095L54.647 8.52802C55.7208 7.75592 57.0326 7.38747 58.3514 7.48789C59.6693 7.58821 60.9094 8.15042 61.8532 9.07506C62.9761 10.2304 63.5321 11.822 63.3727 13.425L63.3725 13.4273C63.2284 15.0265 62.3799 16.478 61.0566 17.3876L61.0557 17.3883L50.5293 24.6958L50.4494 24.7512L50.428 24.8461L45.3965 47.1541C45.3964 47.1546 45.3962 47.1551 45.3961 47.1556C44.9238 49.1332 43.474 50.7331 41.5518 51.3964L41.5517 51.3964C39.629 52.0601 37.5 51.6951 35.9082 50.4291C34.317 49.1627 33.4824 47.1711 33.6963 45.1489C33.6964 45.1485 33.6964 45.1481 33.6964 45.1476L34.7508 36.1593L34.8154 35.6087L34.36 35.9248L25.8313 41.8448L25.8294 41.8462C25.3946 42.1543 24.8815 42.3334 24.3494 42.3634L24.3492 42.3634C23.8168 42.3938 23.2867 42.2735 22.82 42.0162L22.8192 42.0158L13.2364 36.7805L13.236 36.7803C11.6821 35.9345 10.6854 34.3356 10.6099 32.5678L10.6099 32.5678L10.6097 32.5634C10.5031 30.8068 11.3338 29.1252 12.7937 28.1423L12.7937 28.1423L12.7983 28.1391C13.563 27.5989 14.4649 27.2859 15.3999 27.236C16.3348 27.1861 17.2645 27.4015 18.0823 27.8572ZM20.9753 20.1251L20.9752 20.1252L20.9847 20.128L32.862 23.4951L32.9766 23.5276L33.0741 23.459L39.8266 18.7043L40.3644 18.3256L39.7108 18.2515L21.7658 16.2165L21.7658 16.2163L21.7573 16.2156C21.0984 16.1638 20.4564 16.4392 20.0403 16.9525C19.6238 17.4657 19.4871 18.1506 19.6738 18.7844C19.8606 19.4184 20.3473 19.9198 20.9753 20.1251Z" fill="#FF4F4F" stroke="#F7F7F7" stroke-width="0.5"/>
</svg>
